<?xml version="1.0" encoding="UTF-8" standalone="no"?>
<svg
   viewBox="0 0 5333.3335 2000"
   height="2000"
   width="5333.3335"
   xml:space="preserve"
   id="svg2"
   version="1.1"
   sodipodi:docname="icon.svg"
   inkscape:version="1.1.1 (c3084ef, 2021-09-22)"
   xmlns:inkscape="http://www.inkscape.org/namespaces/inkscape"
   xmlns:sodipodi="http://sodipodi.sourceforge.net/DTD/sodipodi-0.dtd"
   xmlns="http://www.w3.org/2000/svg"
   xmlns:svg="http://www.w3.org/2000/svg"
   xmlns:rdf="http://www.w3.org/1999/02/22-rdf-syntax-ns#"
   xmlns:cc="http://creativecommons.org/ns#"
   xmlns:dc="http://purl.org/dc/elements/1.1/"><sodipodi:namedview
     id="namedview29"
     pagecolor="#000000"
     bordercolor="#666666"
     borderopacity="1.0"
     inkscape:pageshadow="2"
     inkscape:pageopacity="1"
     inkscape:pagecheckerboard="0"
     showgrid="false"
     inkscape:zoom="0.21637499"
     inkscape:cx="2641.2479"
     inkscape:cy="998.26693"
     inkscape:window-width="1440"
     inkscape:window-height="800"
     inkscape:window-x="0"
     inkscape:window-y="23"
     inkscape:window-maximized="1"
     inkscape:current-layer="g10" /><metadata
     id="metadata8"><rdf:RDF><cc:Work
         rdf:about=""><dc:format>image/svg+xml</dc:format><dc:type
           rdf:resource="http://purl.org/dc/dcmitype/StillImage" /></cc:Work></rdf:RDF></metadata><defs
     id="defs6"><clipPath
       id="clipPath18"
       clipPathUnits="userSpaceOnUse"><path
         id="path16"
         d="M 0,2000 H 4000 V 0 H 0 Z" /></clipPath></defs><g
     transform="matrix(1.3333333,0,0,-1.3333333,0,2666.6667)"
     id="g10"><path
       id="path22-5"
       style="fill:#ffffff;fill-opacity:1;fill-rule:nonzero;stroke:none"
       d="m 1271.5495,909.77549 c -55.447,26.093 -83.986,-96.217 -101.109,-15.492 -13.862,64.416 -10.6,141.06301 5.708,222.60301 l 56.262,-2.446 19.57,35.878 h -68.494 c 44.847,189.173 155.741,395.469 283.759,519.41 76.647,74.201 247.066,170.418 337.575,78.278 33.432,-34.247 13.047,-76.648 -44.031,-70.124 -97.033,11.415 -77.463,-135.357 29.354,-103.556 74.201,22.016 109.264,108.448 80.725,163.08 -47.294,89.694 -170.419,94.586 -257.667,64.416 -244.619,-83.986 -463.146,-367.745 -512.07,-622.149 -1.631,-9.785 -3.262,-19.57 -4.893,-29.355 H 912.77448 c 38.323,77.463 69.309,157.373 97.84702,232.389 48.925,132.91 76.648,303.329 206.297,379.976 l 6.523,1.631 c 22.015,6.523 13.861,35.878 -4.892,36.693 -7.339,4.077 -16.309,-0.815 -24.463,-8.154 -35.062,-13.862 -73.386,-24.462 -110.894,-32.616 -147.58702,-31.8 -300.88202,-4.892 -445.20802,-61.97 -131.279,-52.186 -205.48,-230.758 -120.679,-353.884 40.77,-59.524 202.219,-63.601 176.126,30.986 -8.154,30.985 -53.001,37.508 -75.832,14.677 -97.032,-97.033 -108.448,78.278 -61.97,144.325 70.124,99.479 171.233,118.234 270.712,136.987 101.925,19.57 212.00402,43.217 317.19002,70.94 -162.26402,-144.325 -231.57302,-379.976 -327.79002,-591.98 h -212.004 l -47.293,-60.34 c 75.832,10.601 158.188,18.755 242.174,22.831 -45.663,-94.586 -97.033,-182.64901 -167.157,-254.40401 -88.063,-90.509 -239.727,-145.95598 -350.622,-75.017 -83.17,53.001 -77.463,194.881 29.355,214.45 104.371,18.75401 22.831,168.78901 -92.141,53.81701 -159.818,-159.81801 24.462,-374.26899 223.42,-335.12899 219.342,43.216 357.145,211.18798 454.993,400.35999 66.862,2.447 132.91002,2.447 195.69502,1.631 -12.231,-124.75601 17.124,-224.23401 66.048,-274.78901 26.908,-27.724 84.801,-50.555 117.417,-18.755 22.831,22.832 35.062,66.864 -4.077,84.802" /></g></svg>
