<?xml version="1.0" encoding="UTF-8" standalone="no"?>
<svg
   xmlns:dc="http://purl.org/dc/elements/1.1/"
   xmlns:cc="http://creativecommons.org/ns#"
   xmlns:rdf="http://www.w3.org/1999/02/22-rdf-syntax-ns#"
   xmlns:svg="http://www.w3.org/2000/svg"
   xmlns="http://www.w3.org/2000/svg"
   viewBox="0 0 5333.3335 2000"
   height="2000"
   width="5333.3335"
   xml:space="preserve"
   id="svg2"
   version="1.1"><metadata
     id="metadata8"><rdf:RDF><cc:Work
         rdf:about=""><dc:format>image/svg+xml</dc:format><dc:type
           rdf:resource="http://purl.org/dc/dcmitype/StillImage" /></cc:Work></rdf:RDF></metadata><defs
     id="defs6"><clipPath
       id="clipPath18"
       clipPathUnits="userSpaceOnUse"><path
         id="path16"
         d="M 0,2000 H 4000 V 0 H 0 Z" /></clipPath></defs><g
     transform="matrix(1.3333333,0,0,-1.3333333,0,2666.6667)"
     id="g10"><g
       id="g12"><g
         clip-path="url(#clipPath18)"
         id="g14"><g
           transform="translate(1538.5493,771.6885)"
           id="g20"><path
             id="path22"
             style="fill:#ffffff;fill-opacity:1;fill-rule:nonzero;stroke:none"
             d="m 0,0 c -55.447,26.093 -83.986,-96.217 -101.109,-15.492 -13.862,64.416 -10.6,141.063 5.708,222.603 l 56.262,-2.446 19.57,35.878 h -68.494 c 44.847,189.173 155.741,395.469 283.759,519.41 76.647,74.201 247.066,170.418 337.575,78.278 33.432,-34.247 13.047,-76.648 -44.031,-70.124 -97.033,11.415 -77.463,-135.357 29.354,-103.556 74.201,22.016 109.264,108.448 80.725,163.08 -47.294,89.694 -170.419,94.586 -257.667,64.416 -244.619,-83.986 -463.146,-367.745 -512.07,-622.149 -1.631,-9.785 -3.262,-19.57 -4.893,-29.355 h -183.464 c 38.323,77.463 69.309,157.373 97.847,232.389 48.925,132.91 76.648,303.329 206.297,379.976 l 6.523,1.631 c 22.015,6.523 13.861,35.878 -4.892,36.693 -7.339,4.077 -16.309,-0.815 -24.463,-8.154 -35.062,-13.862 -73.386,-24.462 -110.894,-32.616 -147.587,-31.8 -300.882,-4.892 -445.208,-61.97 -131.279,-52.186 -205.48,-230.758 -120.679,-353.884 40.77,-59.524 202.219,-63.601 176.126,30.986 -8.154,30.985 -53.001,37.508 -75.832,14.677 -97.032,-97.033 -108.448,78.278 -61.97,144.325 70.124,99.479 171.233,118.234 270.712,136.987 101.925,19.57 212.004,43.217 317.19,70.94 -162.264,-144.325 -231.573,-379.976 -327.79,-591.98 h -212.004 l -47.293,-60.34 c 75.832,10.601 158.188,18.755 242.174,22.831 -45.663,-94.586 -97.033,-182.649 -167.157,-254.404 -88.063,-90.509 -239.727,-145.956 -350.622,-75.017 -83.17,53.001 -77.463,194.881 29.355,214.45 104.371,18.754 22.831,168.789 -92.141,53.817 -159.818,-159.818 24.462,-374.269 223.42,-335.129 219.342,43.216 357.145,211.188 454.993,400.36 66.862,2.447 132.91,2.447 195.695,1.631 -12.231,-124.756 17.124,-224.234 66.048,-274.789 26.908,-27.724 84.801,-50.555 117.417,-18.755 C 26.908,-61.97 39.139,-17.938 0,0" /></g><g
           transform="translate(1797.8472,1485.979)"
           id="g24"><path
             id="path26"
             style="fill:#ffffff;fill-opacity:1;fill-rule:nonzero;stroke:none"
             d="m 0,0 c -16.308,-48.109 -35.062,-92.956 -67.678,-124.756 l 12.231,-10.6 c 39.139,18.754 92.955,49.739 130.464,86.432 20.385,19.57 29.354,45.662 -6.523,66.047 C 37.508,35.062 10.6,31.8 0,0" /></g><g
           transform="translate(1780.7241,1301.6987)"
           id="g28"><path
             id="path30"
             style="fill:#ffffff;fill-opacity:1;fill-rule:nonzero;stroke:none"
             d="M 0,0 C 38.324,0 4.077,-164.711 -117.417,-183.465 -92.956,-81.54 -40.77,0 0,0 m 320.447,-49.739 c 18.754,38.323 -5.708,78.278 -44.032,76.647 C 243.799,25.277 216.076,0 186.721,-53.816 c 2.446,41.585 -24.462,66.862 -58.708,66.862 h -18.755 c 14.678,-16.308 11.416,-38.323 0,-77.463 -5.442,-18.66 -22.747,-75.501 -40.426,-133.41 -39.286,-113.164 -100.081,-151.78 -143.034,-143.826 -39.954,7.339 -59.524,66.863 -48.108,133.726 188.357,-17.939 242.173,234.02 109.264,234.02 -94.587,0 -170.419,-119.049 -189.989,-216.897 -23.646,-116.602 9.785,-210.373 101.11,-210.373 48.056,0 93.724,27.425 130.439,71.297 -1.763,-5.8 -3.144,-10.362 -4.057,-13.404 -8.97,-30.985 -15.493,-44.846 -28.539,-51.37 h 73.386 c 26.092,0 39.139,19.57 44.847,44.847 4.077,17.124 27.724,96.218 48.924,172.865 30.17,92.14 45.662,114.971 65.231,134.541 13.047,13.047 20.385,8.969 21.2,-2.446 2.447,-34.247 53.001,-41.586 70.941,-4.892" /></g><g
           transform="translate(2199.0146,1371.0073)"
           id="g32"><path
             id="path34"
             style="fill:#ffffff;fill-opacity:1;fill-rule:nonzero;stroke:none"
             d="m 0,0 c 29.354,-8.154 60.34,15.493 70.124,52.186 8.97,36.693 -7.339,73.386 -36.692,81.54 C 4.077,141.88 -26.093,119.048 -36.693,82.355 -45.662,44.847 -29.354,8.154 0,0" /></g><g
           transform="translate(2925.5342,1064.4175)"
           id="g36"><path
             id="path38"
             style="fill:#ffffff;fill-opacity:1;fill-rule:nonzero;stroke:none"
             d="m 0,0 -3.262,-8.154 c -12.231,-35.878 -32.616,-82.356 -61.97,-82.356 -29.355,0 -44.847,48.109 -19.57,138.618 27.724,98.664 79.094,159.003 105.187,159.003 26.093,0 25.277,-36.693 18.754,-60.339 v -0.815 z m -74.202,-285.39 c -44.847,-166.342 -124.756,-150.033 -103.556,-60.34 17.124,71.755 54.632,108.448 115.787,106.002 z m -218.527,439.5 C -312.298,84.801 -335.944,0 -343.283,-26.908 c -12.232,-31.801 -30.986,-63.602 -55.447,-63.602 -29.355,0 -44.847,48.109 -19.57,138.618 27.724,98.664 79.094,159.003 105.187,159.003 23.646,0 25.277,-30.17 20.384,-53.001 m 936.894,-396.284 c -43.216,68.494 -128.018,-20.385 -35.062,-66.047 0,-38.324 -79.094,-56.263 -310.667,8.153 -89.694,25.278 -179.388,67.679 -269.897,90.51 l 123.94,459.886 H 67.678 L 57.077,212.819 c -4.076,27.724 -18.754,49.74 -48.108,49.74 -46.478,0 -132.91,-70.94 -175.311,-212.82 -1.176,-3.935 -2.284,-7.812 -3.345,-11.649 -38.339,-113.272 -68.121,-144.092 -86.348,-144.092 -19.57,0 -19.57,16.307 -11.416,44.847 4.892,17.123 67.679,256.851 81.54,311.483 h -77.463 c -2.446,-4.893 -6.523,-18.755 -12.231,-38.324 -4.892,28.539 -19.57,50.555 -48.924,50.555 -46.478,0 -132.91,-70.94 -175.311,-212.82 -1.174,-3.927 -2.28,-7.799 -3.339,-11.629 -38.349,-113.288 -68.355,-144.112 -94.509,-144.112 -21.201,0 -26.909,16.307 -19.57,44.847 l 103.556,401.176 c 86.432,-8.154 182.649,-24.461 257.666,-16.308 242.989,25.278 260.112,147.588 229.942,194.065 -35.061,56.263 -100.294,-15.492 -30.17,-41.585 21.201,-30.985 -16.307,-73.386 -271.527,-88.063 -59.524,-3.262 -115.787,-2.446 -176.941,-5.708 l 16.307,66.048 c -53.001,-44.032 -118.232,-77.463 -167.157,-100.295 l -4.076,-22.831 c 21.2,4.893 53.001,15.493 69.308,19.57 L -675.532,37.199 c -38.204,-112.549 -68.119,-143.201 -94.203,-143.201 -19.571,0 -14.678,16.307 -6.524,44.847 5.708,18.754 67.678,259.297 71.755,273.159 6.524,24.462 0,38.324 -25.277,38.324 h -70.94 c 16.308,-14.678 13.046,-38.324 0,-77.463 -6.523,-18.755 -53.002,-189.173 -58.709,-207.927 -19.57,-64.417 0,-128.834 50.555,-128.834 45.458,0 79.796,28.192 105.964,68.305 2.8,-41.281 25.101,-68.305 66.084,-68.305 52.836,0 90.652,38.08 118.071,88.705 2.716,-62.133 29.633,-95.227 66.209,-95.227 38.324,0 72.57,33.43 99.479,79.908 1.631,-41.585 22.016,-73.386 57.893,-73.386 47.81,0 83.459,37.527 109.968,87.601 2.985,-61.421 29.799,-94.123 66.158,-94.123 33.432,0 64.417,26.091 89.695,64.416 l -26.909,-98.664 c -39.139,-1.63 -78.278,-11.416 -118.233,-30.985 -50.555,-25.277 -74.201,-73.386 -77.463,-109.264 -11.415,-132.91 202.22,-145.14 260.112,58.709 l 8.97,31.801 c 82.356,-31.801 228.312,-135.356 402.808,-151.664 212.818,-20.386 256.85,111.709 224.234,163.895" /></g><g
           transform="translate(3277.7822,1301.6987)"
           id="g40"><path
             id="path42"
             style="fill:#ffffff;fill-opacity:1;fill-rule:nonzero;stroke:none"
             d="M 0,0 C 38.324,0 4.077,-164.711 -117.417,-183.465 -92.955,-81.54 -40.77,0 0,0 m -101.925,-401.177 c 88.879,0 169.604,93.771 200.588,212.004 H 71.756 c -39.14,-119.864 -101.926,-160.634 -145.957,-152.48 -39.954,7.339 -59.525,66.863 -48.109,133.726 188.358,-17.939 242.174,234.02 109.264,234.02 -94.587,0 -170.419,-119.049 -189.988,-216.897 -23.647,-116.602 9.785,-210.373 101.109,-210.373" /></g></g></g></g></svg>