<?xml version="1.0" encoding="UTF-8" standalone="no"?>
<!-- Created with Inkscape (http://www.inkscape.org/) -->

<svg
   version="1.1"
   id="svg2"
   xml:space="preserve"
   width="5333.3335"
   height="2666.6667"
   viewBox="0 0 5333.3335 2666.6667"
   sodipodi:docname="LOGO HERITAGE 2022  AVEC  BASE LINE .ai"
   xmlns:inkscape="http://www.inkscape.org/namespaces/inkscape"
   xmlns:sodipodi="http://sodipodi.sourceforge.net/DTD/sodipodi-0.dtd"
   xmlns="http://www.w3.org/2000/svg"
   xmlns:svg="http://www.w3.org/2000/svg"><defs
     id="defs6"><clipPath
       clipPathUnits="userSpaceOnUse"
       id="clipPath16"><path
         d="M 0,2000 H 4000 V 0 H 0 Z"
         id="path14" /></clipPath></defs><sodipodi:namedview
     id="namedview4"
     pagecolor="#ffffff"
     bordercolor="#666666"
     borderopacity="1.0"
     inkscape:pageshadow="2"
     inkscape:pageopacity="0.0"
     inkscape:pagecheckerboard="0" /><g
     id="g8"
     inkscape:groupmode="layer"
     inkscape:label="LOGO HERITAGE 2022  AVEC  BASE LINE "
     transform="matrix(1.3333333,0,0,-1.3333333,0,2666.6667)"><g
       id="g10"><g
         id="g12"
         clip-path="url(#clipPath16)"><g
           id="g18"
           transform="translate(1518.4824,724.623)"><path
             d="m 0,0 c -55.447,26.093 -83.986,-96.217 -101.109,-15.492 -13.862,64.416 -10.6,141.063 5.708,222.603 l 56.262,-2.446 19.57,35.878 h -68.494 c 44.847,189.172 155.741,395.469 283.759,519.409 76.647,74.201 247.066,170.419 337.575,78.278 33.432,-34.246 13.047,-76.647 -44.031,-70.124 -97.033,11.416 -77.463,-135.356 29.355,-103.555 74.201,22.015 109.263,108.448 80.724,163.079 -47.294,89.694 -170.419,94.587 -257.667,64.417 -244.619,-83.986 -463.146,-367.745 -512.07,-622.15 -1.631,-9.785 -3.262,-19.569 -4.893,-29.354 h -183.464 c 38.323,77.463 69.309,157.372 97.847,232.389 48.925,132.91 76.648,303.328 206.297,379.976 l 6.523,1.631 c 22.015,6.523 13.861,35.877 -4.892,36.692 -7.339,4.078 -16.309,-0.815 -24.463,-8.153 -35.062,-13.862 -73.386,-24.463 -110.894,-32.617 -147.587,-31.8 -300.882,-4.892 -445.208,-61.97 -131.279,-52.185 -205.48,-230.758 -120.679,-353.883 40.77,-59.524 202.219,-63.601 176.126,30.985 -8.154,30.985 -53.001,37.509 -75.832,14.678 -97.032,-97.033 -108.448,78.278 -61.97,144.325 70.124,99.479 171.233,118.233 270.712,136.987 101.925,19.569 212.004,43.216 317.19,70.939 -162.264,-144.325 -231.573,-379.975 -327.79,-591.979 h -212.004 l -47.293,-60.34 c 75.832,10.601 158.188,18.755 242.174,22.831 -45.663,-94.586 -97.033,-182.649 -167.157,-254.404 -88.063,-90.509 -239.727,-145.956 -350.622,-75.017 -83.17,53.001 -77.463,194.881 29.355,214.45 104.371,18.754 22.831,168.789 -92.141,53.817 -159.818,-159.818 24.462,-374.269 223.42,-335.129 219.342,43.216 357.145,211.188 454.993,400.36 66.862,2.447 132.91,2.447 195.695,1.631 -12.231,-124.756 17.124,-224.234 66.048,-274.789 26.908,-27.724 84.801,-50.555 117.417,-18.755 C 26.908,-61.97 39.139,-17.938 0,0"
             style="fill:#1d1d1b;fill-opacity:1;fill-rule:nonzero;stroke:none"
             id="path20" /></g><g
           id="g22"
           transform="translate(1777.7803,1438.9131)"><path
             d="m 0,0 c -16.308,-48.109 -35.062,-92.956 -67.678,-124.756 l 12.231,-10.6 c 39.139,18.754 92.955,49.739 130.464,86.432 20.385,19.57 29.354,45.662 -6.523,66.047 C 37.508,35.062 10.6,31.8 0,0"
             style="fill:#1d1d1b;fill-opacity:1;fill-rule:nonzero;stroke:none"
             id="path24" /></g><g
           id="g26"
           transform="translate(1760.6572,1254.6328)"><path
             d="M 0,0 C 38.324,0 4.077,-164.711 -117.417,-183.465 -92.956,-81.54 -40.77,0 0,0 m 320.447,-49.739 c 18.754,38.323 -5.708,78.278 -44.032,76.647 C 243.8,25.277 216.076,0 186.721,-53.816 c 2.446,41.585 -24.462,66.862 -58.708,66.862 h -18.755 c 14.678,-16.308 11.416,-38.323 0,-77.463 -5.442,-18.66 -22.747,-75.502 -40.426,-133.411 -39.286,-113.163 -100.081,-151.778 -143.034,-143.824 -39.954,7.339 -59.524,66.863 -48.108,133.725 188.357,-17.939 242.173,234.02 109.264,234.02 -94.587,0 -170.419,-119.049 -189.989,-216.897 -23.646,-116.601 9.785,-210.373 101.11,-210.373 48.056,0 93.724,27.425 130.439,71.297 -1.763,-5.8 -3.144,-10.361 -4.057,-13.403 -8.97,-30.986 -15.493,-44.847 -28.539,-51.37 h 73.386 c 26.092,0 39.139,19.569 44.847,44.846 4.077,17.124 27.724,96.218 48.924,172.865 30.17,92.14 45.662,114.971 65.232,134.541 13.047,13.047 20.384,8.969 21.2,-2.446 2.446,-34.247 53.001,-41.586 70.94,-4.892"
             style="fill:#1d1d1b;fill-opacity:1;fill-rule:nonzero;stroke:none"
             id="path28" /></g><g
           id="g30"
           transform="translate(2178.9482,1323.9414)"><path
             d="m 0,0 c 29.354,-8.154 60.34,15.493 70.124,52.186 8.97,36.693 -7.339,73.386 -36.692,81.54 C 4.077,141.88 -26.093,119.048 -36.693,82.355 -45.662,44.847 -29.354,8.154 0,0"
             style="fill:#1d1d1b;fill-opacity:1;fill-rule:nonzero;stroke:none"
             id="path32" /></g><g
           id="g34"
           transform="translate(2905.4678,1017.3516)"><path
             d="m 0,0 -3.262,-8.154 c -12.231,-35.877 -32.616,-82.356 -61.97,-82.356 -29.355,0 -44.847,48.11 -19.57,138.618 27.724,98.664 79.094,159.003 105.187,159.003 26.093,0 25.277,-36.693 18.754,-60.339 v -0.815 z m -74.202,-285.39 c -44.847,-166.341 -124.756,-150.033 -103.556,-60.339 17.124,71.754 54.632,108.448 115.787,106.001 z m -218.527,439.5 C -312.298,84.801 -335.944,0 -343.283,-26.908 c -12.232,-31.801 -30.986,-63.602 -55.447,-63.602 -29.355,0 -44.847,48.11 -19.57,138.618 27.724,98.664 79.094,159.003 105.187,159.003 23.646,0 25.277,-30.17 20.384,-53.001 m 936.894,-396.284 c -43.216,68.494 -128.018,-20.385 -35.062,-66.047 0,-38.324 -79.094,-56.262 -310.667,8.154 -89.694,25.278 -179.388,67.678 -269.897,90.509 l 123.94,459.886 H 67.678 L 57.077,212.819 c -4.076,27.724 -18.754,49.74 -48.108,49.74 -46.478,0 -132.91,-70.94 -175.311,-212.82 -1.176,-3.934 -2.284,-7.812 -3.345,-11.649 -38.339,-113.272 -68.121,-144.092 -86.348,-144.092 -19.57,0 -19.57,16.308 -11.416,44.847 4.892,17.124 67.679,256.851 81.54,311.483 h -77.463 c -2.446,-4.893 -6.523,-18.755 -12.231,-38.324 -4.892,28.539 -19.57,50.555 -48.924,50.555 -46.478,0 -132.91,-70.94 -175.311,-212.82 -1.174,-3.927 -2.28,-7.799 -3.339,-11.629 -38.348,-113.288 -68.355,-144.112 -94.509,-144.112 -21.201,0 -26.909,16.308 -19.57,44.847 l 103.556,401.176 c 86.432,-8.154 182.649,-24.461 257.666,-16.308 242.989,25.278 260.112,147.588 229.942,194.065 -35.061,56.263 -100.294,-15.492 -30.17,-41.585 21.201,-30.985 -16.307,-73.386 -271.527,-88.063 -59.524,-3.262 -115.787,-2.446 -176.941,-5.708 l 16.307,66.048 c -53.001,-44.032 -118.232,-77.463 -167.157,-100.295 l -4.076,-22.831 c 21.2,4.893 53.001,15.493 69.308,19.57 L -675.533,37.198 c -38.203,-112.549 -68.119,-143.2 -94.202,-143.2 -19.571,0 -14.678,16.308 -6.524,44.847 5.708,18.755 67.678,259.297 71.755,273.159 6.524,24.462 0,38.324 -25.277,38.324 h -70.94 c 16.308,-14.678 13.046,-38.324 0,-77.463 -6.523,-18.755 -53.002,-189.173 -58.709,-207.927 -19.57,-64.417 0,-128.834 50.555,-128.834 45.458,0 79.796,28.193 105.964,68.304 2.8,-41.279 25.101,-68.304 66.084,-68.304 52.836,0 90.652,38.081 118.071,88.706 2.716,-62.133 29.633,-95.228 66.209,-95.228 38.324,0 72.57,33.431 99.479,79.908 1.631,-41.585 22.016,-73.386 57.893,-73.386 47.81,0 83.459,37.528 109.968,87.6 2.985,-61.42 29.799,-94.122 66.158,-94.122 33.432,0 64.417,26.092 89.695,64.416 l -26.909,-98.663 c -39.139,-1.631 -78.278,-11.416 -118.233,-30.985 -50.555,-25.278 -74.201,-73.386 -77.463,-109.264 -11.415,-132.91 202.22,-145.141 260.112,58.709 l 8.97,31.801 c 82.356,-31.801 228.312,-135.357 402.808,-151.664 212.818,-20.386 256.85,111.709 224.234,163.894"
             style="fill:#1d1d1b;fill-opacity:1;fill-rule:nonzero;stroke:none"
             id="path36" /></g><g
           id="g38"
           transform="translate(3257.7158,1254.6328)"><path
             d="M 0,0 C 38.324,0 4.077,-164.711 -117.417,-183.465 -92.955,-81.54 -40.77,0 0,0 m -101.925,-401.177 c 88.879,0 169.604,93.772 200.588,212.004 H 71.756 C 32.616,-309.036 -30.17,-349.807 -74.201,-341.652 c -39.954,7.339 -59.525,66.863 -48.109,133.725 188.358,-17.939 242.174,234.02 109.264,234.02 -94.587,0 -170.419,-119.049 -189.988,-216.897 -23.647,-116.601 9.785,-210.373 101.109,-210.373"
             style="fill:#1d1d1b;fill-opacity:1;fill-rule:nonzero;stroke:none"
             id="path40" /></g><g
           id="g42"
           transform="translate(840.2485,305.335)"><path
             d="m 0,0 c -16.604,0 -27.674,15.497 -27.674,37.536 0,22.34 11.171,37.535 27.674,37.535 9.459,0 15.799,-3.824 19.623,-8.956 L 10.969,54.441 c -2.415,3.221 -5.233,5.234 -9.761,5.234 -8.454,0 -12.881,-9.661 -12.881,-22.139 0,-12.277 4.427,-22.14 12.981,-22.14 4.327,0 7.547,2.516 9.46,5.435 L 19.724,9.661 C 15.799,4.227 9.862,0 0,0"
             style="fill:#040604;fill-opacity:1;fill-rule:nonzero;stroke:none"
             id="path44" /></g><g
           id="g46"
           transform="translate(927.0972,364.8086)"><path
             d="m 0,0 c -7.346,0 -10.868,-9.359 -10.868,-21.736 0,-12.378 3.522,-21.939 10.868,-21.939 7.245,0 10.868,9.561 10.868,21.939 C 10.868,-9.359 7.245,0 0,0 m 0,-59.474 c -16.906,0 -27.372,15.095 -27.372,37.738 0,22.541 10.265,37.334 27.372,37.334 16.906,0 27.372,-14.793 27.372,-37.334 0,-22.643 -10.466,-37.738 -27.372,-37.738"
             style="fill:#040604;fill-opacity:1;fill-rule:nonzero;stroke:none"
             id="path48" /></g><g
           id="g50"
           transform="translate(1025.8208,305.335)"><path
             d="m 0,0 c -16.604,0 -27.674,15.497 -27.674,37.536 0,22.34 11.171,37.535 27.674,37.535 9.459,0 15.799,-3.824 19.623,-8.956 L 10.969,54.441 c -2.415,3.221 -5.233,5.234 -9.761,5.234 -8.454,0 -12.881,-9.661 -12.881,-22.139 0,-12.277 4.427,-22.14 12.981,-22.14 4.327,0 7.547,2.516 9.46,5.435 L 19.724,9.661 C 15.799,4.227 9.862,0 0,0"
             style="fill:#040604;fill-opacity:1;fill-rule:nonzero;stroke:none"
             id="path52" /></g><g
           id="g54"
           transform="translate(1121.1216,307.2471)"><path
             d="m 0,0 -15.195,33.107 h -0.302 V 0 h -16.202 v 71.247 h 16.202 V 41.561 h 0.302 L -0.503,71.247 H 17.51 L -0.805,38.643 18.617,0 Z"
             style="fill:#040604;fill-opacity:1;fill-rule:nonzero;stroke:none"
             id="path56" /></g><g
           id="g58"
           transform="translate(1204.6499,364.8086)"><path
             d="M 0,0 V -57.562 H -15.799 V 0 H -28.881 V 13.686 H 13.082 V 0 Z"
             style="fill:#040604;fill-opacity:1;fill-rule:nonzero;stroke:none"
             id="path60" /></g><g
           id="g62"
           transform="translate(1279.9258,362.9971)"><path
             d="M 0,0 H -0.402 L -6.44,-30.29 H 5.736 Z m 10.667,-55.75 -2.918,12.981 h -16 L -11.17,-55.75 H -27.271 L -9.962,15.497 H 10.265 L 27.473,-55.75 Z"
             style="fill:#040604;fill-opacity:1;fill-rule:nonzero;stroke:none"
             id="path64" /></g><path
           d="m 1350.472,378.494 h 16.202 v -71.247 h -16.202 z"
           style="fill:#040604;fill-opacity:1;fill-rule:nonzero;stroke:none"
           id="path66" /><g
           id="g68"
           transform="translate(1416.186,307.2471)"><path
             d="M 0,0 V 71.247 H 16.302 V 14.894 h 19.02 V 0 Z"
             style="fill:#040604;fill-opacity:1;fill-rule:nonzero;stroke:none"
             id="path70" /></g><g
           id="g72"
           transform="translate(1525.0713,361.3867)"><path
             d="m 0,0 c -2.415,2.818 -5.836,4.428 -9.258,4.428 -3.623,0 -7.044,-2.114 -7.044,-7.346 0,-4.428 3.019,-6.34 8.755,-9.258 6.541,-3.22 15.094,-8.352 15.094,-20.73 0,-15.397 -10.465,-23.146 -22.138,-23.146 -8.554,0 -16.001,3.724 -20.227,8.051 l 8.252,12.075 c 3.018,-3.22 7.345,-5.333 11.471,-5.333 3.925,0 6.944,2.717 6.944,7.245 0,4.63 -3.321,6.945 -9.459,9.963 -7.749,3.824 -14.189,8.655 -14.189,20.53 0,15.798 11.572,22.541 21.937,22.541 7.749,0 14.089,-2.717 18.215,-7.145 z"
             style="fill:#040604;fill-opacity:1;fill-rule:nonzero;stroke:none"
             id="path74" /></g><g
           id="g76"
           transform="translate(1658.2124,368.834)"><path
             d="m 0,0 c -3.12,0 -4.931,-3.321 -4.931,-7.045 0,-3.421 1.207,-6.541 3.421,-9.258 3.12,2.013 5.938,5.132 5.938,9.459 C 4.428,-3.02 2.918,0 0,0 m -7.044,-31.9 c -1.811,-1.007 -4.227,-4.227 -4.227,-8.755 0,-5.535 2.717,-9.158 7.044,-9.158 3.422,0 5.435,2.617 6.34,4.73 z m 20.931,-29.687 -4.126,5.938 c -2.717,-4.126 -7.949,-7.448 -15.296,-7.448 -12.378,0 -20.227,7.649 -20.227,21.435 0,9.56 4.931,16.101 11.774,19.724 -3.22,4.327 -5.132,9.158 -5.132,14.893 0,11.674 8.252,18.718 19.019,18.718 10.265,0 17.611,-6.34 17.611,-17.61 0,-9.057 -6.139,-14.693 -12.982,-18.919 l 5.938,-8.252 4.93,10.566 H 30.592 L 19.12,-43.977 31.799,-61.587 Z"
             style="fill:#040604;fill-opacity:1;fill-rule:nonzero;stroke:none"
             id="path78" /></g><g
           id="g80"
           transform="translate(1811.5801,364.9092)"><path
             d="M 0,0 H -5.132 V -18.617 H 0 c 4.428,0 7.95,3.422 7.95,9.56 C 7.95,-2.717 4.428,0 0,0 M 1.812,-31.699 H -5.132 V -57.662 H -20.931 V 13.585 H 1.208 c 10.164,0 21.837,-5.333 21.837,-22.34 0,-15.9 -10.667,-22.944 -21.233,-22.944"
             style="fill:#040604;fill-opacity:1;fill-rule:nonzero;stroke:none"
             id="path82" /></g><g
           id="g84"
           transform="translate(1880.0122,307.2471)"><path
             d="M 0,0 V 71.247 H 16.302 V 14.894 h 19.02 V 0 Z"
             style="fill:#040604;fill-opacity:1;fill-rule:nonzero;stroke:none"
             id="path86" /></g><g
           id="g88"
           transform="translate(1980.3442,362.9971)"><path
             d="M 0,0 H -0.402 L -6.44,-30.29 H 5.736 Z m 10.667,-55.75 -2.918,12.981 h -16 L -11.17,-55.75 H -27.271 L -9.962,15.497 H 10.265 L 27.473,-55.75 Z"
             style="fill:#040604;fill-opacity:1;fill-rule:nonzero;stroke:none"
             id="path90" /></g><g
           id="g92"
           transform="translate(2081.6846,307.2471)"><path
             d="m 0,0 -16.504,43.372 h -0.302 L -16.403,0 h -14.39 v 71.247 h 17.711 L 3.321,27.271 H 3.623 L 3.321,71.247 H 17.208 L 17.208,0 Z"
             style="fill:#040604;fill-opacity:1;fill-rule:nonzero;stroke:none"
             id="path94" /></g><g
           id="g96"
           transform="translate(2173.1621,305.335)"><path
             d="m 0,0 c -16.604,0 -27.673,15.497 -27.673,37.536 0,22.34 11.17,37.535 27.673,37.535 9.46,0 15.8,-3.824 19.624,-8.956 L 10.97,54.441 c -2.416,3.221 -5.234,5.234 -9.762,5.234 -8.453,0 -12.881,-9.661 -12.881,-22.139 0,-12.277 4.428,-22.14 12.982,-22.14 4.327,0 7.547,2.516 9.459,5.435 L 19.725,9.661 C 15.8,4.227 9.862,0 0,0"
             style="fill:#040604;fill-opacity:1;fill-rule:nonzero;stroke:none"
             id="path98" /></g><g
           id="g100"
           transform="translate(2269.3691,307.2471)"><path
             d="M 0,0 V 29.787 H -16.604 V 0 h -16 v 71.247 h 16 V 44.178 H 0 V 71.247 H 16.001 V 0 Z"
             style="fill:#040604;fill-opacity:1;fill-rule:nonzero;stroke:none"
             id="path102" /></g><g
           id="g104"
           transform="translate(2334.8838,307.2471)"><path
             d="M 0,0 V 71.247 H 34.416 V 57.059 H 15.396 V 43.07 h 17.51 V 29.787 H 15.396 V 14.391 H 35.624 L 35.624,0 Z"
             style="fill:#040604;fill-opacity:1;fill-rule:nonzero;stroke:none"
             id="path106" /></g><g
           id="g108"
           transform="translate(2446.2861,361.3867)"><path
             d="m 0,0 c -2.415,2.818 -5.837,4.428 -9.259,4.428 -3.622,0 -7.044,-2.114 -7.044,-7.346 0,-4.428 3.019,-6.34 8.755,-9.258 6.541,-3.22 15.095,-8.352 15.095,-20.73 0,-15.397 -10.466,-23.146 -22.139,-23.146 -8.554,0 -16.001,3.724 -20.227,8.051 l 8.252,12.075 c 3.019,-3.22 7.346,-5.333 11.472,-5.333 3.924,0 6.944,2.717 6.944,7.245 0,4.63 -3.322,6.945 -9.46,9.963 -7.748,3.824 -14.189,8.655 -14.189,20.53 0,15.798 11.572,22.541 21.938,22.541 7.749,0 14.089,-2.717 18.215,-7.145 z"
             style="fill:#040604;fill-opacity:1;fill-rule:nonzero;stroke:none"
             id="path110" /></g><g
           id="g112"
           transform="translate(2576.1074,362.9971)"><path
             d="M 0,0 H -0.402 L -6.44,-30.29 H 5.735 Z M -0.302,35.624 8.755,21.133 H -2.113 L -13.385,35.624 Z M 10.667,-55.75 7.748,-42.769 h -16 L -11.17,-55.75 H -27.271 L -9.963,15.497 H 10.264 L 27.473,-55.75 Z"
             style="fill:#040604;fill-opacity:1;fill-rule:nonzero;stroke:none"
             id="path114" /></g><g
           id="g116"
           transform="translate(2722.7344,364.9092)"><path
             d="M 0,0 H -5.133 V -18.617 H 0 c 4.428,0 7.949,3.422 7.949,9.56 C 7.949,-2.717 4.428,0 0,0 M 1.812,-31.699 H -5.133 V -57.662 H -20.932 V 13.585 H 1.207 c 10.164,0 21.837,-5.333 21.837,-22.34 0,-15.9 -10.667,-22.944 -21.232,-22.944"
             style="fill:#040604;fill-opacity:1;fill-rule:nonzero;stroke:none"
             id="path118" /></g><g
           id="g120"
           transform="translate(2807.8721,362.9971)"><path
             d="M 0,0 H -0.402 L -6.44,-30.29 H 5.735 Z m 10.667,-55.75 -2.919,12.981 h -16 l -2.919,-12.981 h -16.1 L -9.963,15.497 H 10.264 L 27.472,-55.75 Z"
             style="fill:#040604;fill-opacity:1;fill-rule:nonzero;stroke:none"
             id="path122" /></g><g
           id="g124"
           transform="translate(2898.9473,365.0098)"><path
             d="m 0,0 h -5.032 v -18.013 h 4.729 c 4.529,0 8.554,2.717 8.554,9.158 C 8.251,-1.61 3.723,0 0,0 m 9.258,-57.763 -9.561,28.378 H -5.032 V -57.763 H -20.529 V 13.484 H 2.314 c 13.787,0 21.837,-7.245 21.837,-21.434 0,-10.567 -5.434,-16.403 -10.063,-18.013 l 12.177,-31.8 z"
             style="fill:#040604;fill-opacity:1;fill-rule:nonzero;stroke:none"
             id="path126" /></g><g
           id="g128"
           transform="translate(2991.5303,364.8086)"><path
             d="M 0,0 V -57.562 H -15.799 V 0 H -28.881 V 13.686 H 13.083 L 13.083,0 Z"
             style="fill:#040604;fill-opacity:1;fill-rule:nonzero;stroke:none"
             id="path130" /></g><g
           id="g132"
           transform="translate(3066.8066,362.9971)"><path
             d="M 0,0 H -0.402 L -6.44,-30.29 H 5.735 Z m 10.667,-55.75 -2.919,12.981 h -16 L -11.17,-55.75 H -27.271 L -9.963,15.497 H 10.264 L 27.473,-55.75 Z"
             style="fill:#040604;fill-opacity:1;fill-rule:nonzero;stroke:none"
             id="path134" /></g><g
           id="g136"
           transform="translate(3162.4111,305.6367)"><path
             d="m 0,0 c -17.912,0 -28.579,15.095 -28.579,37.234 0,22.24 10.969,37.536 27.572,37.536 9.561,0 16.102,-3.724 19.825,-8.655 L 10.063,54.342 c -2.416,3.32 -5.635,5.031 -9.862,5.031 -8.855,0.101 -12.881,-10.164 -12.881,-22.139 0,-11.975 3.724,-22.24 12.579,-22.24 2.315,0 4.328,0.503 5.635,1.51 V 29.787 H -2.113 V 43.775 H 19.623 V 5.837 C 15.095,2.314 8.654,0 0,0"
             style="fill:#040604;fill-opacity:1;fill-rule:nonzero;stroke:none"
             id="path138" /></g><g
           id="g140"
           transform="translate(3229.9375,307.2471)"><path
             d="M 0,0 V 71.247 H 34.416 V 57.059 H 15.396 V 43.07 h 17.51 V 29.787 H 15.396 V 14.391 H 35.624 L 35.624,0 Z"
             style="fill:#040604;fill-opacity:1;fill-rule:nonzero;stroke:none"
             id="path142" /></g><g
           id="g144"
           transform="translate(3332.3848,365.0098)"><path
             d="m 0,0 h -5.032 v -18.013 h 4.729 c 4.529,0 8.554,2.717 8.554,9.158 C 8.251,-1.61 3.723,0 0,0 m 9.258,-57.763 -9.561,28.378 H -5.032 V -57.763 H -20.529 V 13.484 H 2.314 c 13.787,0 21.837,-7.245 21.837,-21.434 0,-10.567 -5.434,-16.403 -10.063,-18.013 l 12.177,-31.8 z"
             style="fill:#040604;fill-opacity:1;fill-rule:nonzero;stroke:none"
             id="path146" /></g></g></g></g></svg>
